<svg width="1600" height="1200" viewBox="0 0 1600 1200" fill="none" xmlns="http://www.w3.org/2000/svg">
<rect width="1600" height="1200" fill="#F5F7F7"/>
<rect x="72" y="72" width="1456" height="1056" rx="40" fill="white" stroke="#CDD8DA" stroke-width="4"/>
<rect x="156" y="156" width="1128" height="888" rx="24" fill="#FAFBFB" stroke="#DCE5E6" stroke-width="3"/>
<rect x="1320" y="156" width="124" height="888" rx="20" fill="#F0F4F4"/>
<path d="M260 290H1092" stroke="#B7C8CB" stroke-width="8" stroke-dasharray="16 16"/>
<path d="M260 476H1092" stroke="#B7C8CB" stroke-width="8" stroke-dasharray="16 16"/>
<path d="M260 662H1092" stroke="#B7C8CB" stroke-width="8" stroke-dasharray="16 16"/>
<path d="M260 848H1092" stroke="#B7C8CB" stroke-width="8" stroke-dasharray="16 16"/>
<path d="M370 220V956" stroke="#B7C8CB" stroke-width="8" stroke-dasharray="16 16"/>
<path d="M652 220V956" stroke="#B7C8CB" stroke-width="8" stroke-dasharray="16 16"/>
<path d="M934 220V956" stroke="#B7C8CB" stroke-width="8" stroke-dasharray="16 16"/>
<rect x="314" y="344" width="430" height="252" rx="18" stroke="#90A8AD" stroke-width="14"/>
<rect x="798" y="344" width="176" height="438" rx="18" stroke="#90A8AD" stroke-width="14"/>
<rect x="430" y="650" width="314" height="132" rx="18" stroke="#90A8AD" stroke-width="14"/>
<path d="M1112 248V936" stroke="#B7C8CB" stroke-width="6"/>
<path d="M1160 248V936" stroke="#B7C8CB" stroke-width="6"/>
<path d="M1208 248V936" stroke="#B7C8CB" stroke-width="6"/>
<circle cx="1382" cy="250" r="26" stroke="#90A8AD" stroke-width="8"/>
<circle cx="1382" cy="918" r="26" stroke="#90A8AD" stroke-width="8"/>
<rect x="288" y="956" width="504" height="28" rx="14" fill="#B7C8CB"/>
<rect x="288" y="1006" width="360" height="20" rx="10" fill="#D0DBDD"/>
<text x="286" y="1082" fill="#7C8F94" font-family="Arial, sans-serif" font-size="56" font-weight="700" letter-spacing="6">DRAWING PLACEHOLDER</text>
</svg>
