<svg width="1600" height="1200" viewBox="0 0 1600 1200" fill="none" xmlns="http://www.w3.org/2000/svg">
<rect width="1600" height="1200" fill="#F3F5F5"/>
<rect x="72" y="72" width="1456" height="1056" rx="40" fill="#E8ECEC" stroke="#C9D6D8" stroke-width="4"/>
<rect x="164" y="176" width="1272" height="716" rx="28" fill="#D9E3E4"/>
<rect x="212" y="228" width="430" height="280" rx="20" fill="#EEF3F3"/>
<rect x="678" y="228" width="274" height="430" rx="20" fill="#EEF3F3"/>
<rect x="988" y="228" width="400" height="200" rx="20" fill="#EEF3F3"/>
<rect x="988" y="458" width="400" height="200" rx="20" fill="#EEF3F3"/>
<rect x="212" y="544" width="430" height="114" rx="20" fill="#EEF3F3"/>
<path d="M324 858L562 618L760 782L950 588L1248 858" stroke="#B7C8CB" stroke-width="22" stroke-linecap="round" stroke-linejoin="round"/>
<circle cx="1108" cy="404" r="62" fill="#EEF3F3" stroke="#B7C8CB" stroke-width="18"/>
<rect x="164" y="944" width="462" height="28" rx="14" fill="#B7C8CB"/>
<rect x="164" y="996" width="298" height="20" rx="10" fill="#C9D6D8"/>
<rect x="164" y="1040" width="356" height="20" rx="10" fill="#D7E1E2"/>
<rect x="1210" y="946" width="226" height="96" rx="48" fill="#D5DFE0"/>
<path d="M1272 994H1374" stroke="#AABCC0" stroke-width="14" stroke-linecap="round"/>
<path d="M1308 958V1030" stroke="#AABCC0" stroke-width="14" stroke-linecap="round"/>
</svg>
